<svg viewBox="0 0 1920 111.81" version="1.1" xmlns="http://www.w3.org/2000/svg" id="Capa_1">
  
  <defs>
    <style>
      .st0 {
        stroke-width: 2px;
      }

      .st0, .st1 {
        fill: #949393;
      }

      .st0, .st2 {
        stroke: #949393;
        stroke-miterlimit: 10;
      }

      .st2 {
        fill: none;
      }
    </style>
  </defs>
  <g>
    <path d="M91.75,63.45c-1.61,23.38-23.9,39.32-46.7,32.64-5.1-1.49-9.88-4.28-13.81-7.82-1.3,1.34-3.26,3.82-4.74,1.17l-1.57-8.75c0-.96.83-1.62,1.73-1.72,2.62.59,5.51.8,8.1,1.44.7.18,1.4.37,1.66,1.14.55,1.68-1.15,2.5-2.06,3.59,9.22,8.35,22.81,10.39,34.18,5.3,12.13-5.43,19.49-17.83,18.74-31.14-.07-1.33-.66-3.39-.51-4.59.28-2.27,3.61-2.57,4.31-.11.35,1.21.58,3.63.65,4.89v3.94Z" class="st1"></path>
    <path d="M52.41,25.31c10.1-.66,19.84,2.45,27.32,9.25,1.36-1.65,3.99-4.04,4.86-.53.64,2.56.82,5.4,1.44,7.99.01.97-.84,1.94-1.84,1.84-2.58-.62-5.43-.8-7.98-1.44-3.41-.85-1.27-3.36.4-4.73-3.75-3.33-8.29-5.81-13.18-7.05-21.29-5.4-41.01,11.22-39.75,33.01.08,1.3.71,3.54.48,4.68-.41,2.02-3.58,2.27-4.26,0-1.06-3.52-.75-9.65-.13-13.29,2.72-15.81,16.51-28.66,32.64-29.71Z" class="st1"></path>
  </g>
  <g>
    <path d="M126.62,45.79h3.09c-.89,4.55-4.43,7.56-9.17,7.56-5.47,0-9.84-4.18-9.84-9.84s4.38-9.82,9.84-9.82c4.74,0,8.28,2.96,9.17,7.5h-3.09c-.75-2.93-2.93-4.71-6.08-4.71-3.88,0-6.8,2.93-6.8,7.03s2.93,7.03,6.8,7.03c3.15,0,5.33-1.78,6.08-4.74Z" class="st1"></path>
    <path d="M146.19,39.88v13.11h-2.87v-1.03c-1.12.86-2.54,1.37-4.21,1.37-3.68,0-6.64-3.07-6.64-6.89s2.96-6.89,6.64-6.89c1.67,0,3.09.5,4.21,1.37v-1.03h2.87ZM143.32,48.8v-4.74c-.98-1.39-2.34-1.9-3.79-1.9-2.4,0-4.15,1.92-4.15,4.27s1.76,4.27,4.15,4.27c1.45,0,2.82-.5,3.79-1.9Z" class="st1"></path>
    <path d="M172.07,45.49v7.5h-2.87v-7.5c0-2.31-1.23-3.32-3.09-3.32-1.28,0-2.51.47-3.49,1.78.08.42.11.89.11,1.37v7.67h-2.87v-7.67c0-2.31-1.23-3.15-2.93-3.15-1.37,0-2.59.56-3.54,1.87v8.95h-2.9v-13.11h2.9v1.12c.98-.89,2.15-1.45,3.88-1.45,1.87,0,3.37.64,4.35,1.9,1.28-1.25,2.76-1.9,4.68-1.9,3.43,0,5.77,2.06,5.77,5.94Z" class="st1"></path>
    <path d="M189.79,46.41c0,3.85-2.98,6.91-6.66,6.91-1.67,0-3.09-.5-4.18-1.37v1.03h-2.9v-19.8h2.9v7.7c1.09-.84,2.51-1.34,4.18-1.34,3.68,0,6.66,3.07,6.66,6.86ZM186.89,46.41c0-2.31-1.76-4.24-4.18-4.24-1.45,0-2.79.47-3.76,1.84v4.82c.98,1.37,2.31,1.87,3.76,1.87,2.43,0,4.18-1.95,4.18-4.29Z" class="st1"></path>
    <path d="M193.25,35.06c0-1.03.81-1.78,1.84-1.78s1.84.75,1.84,1.78-.84,1.78-1.84,1.78-1.84-.75-1.84-1.78ZM196.54,39.88v13.11h-2.87v-13.11h2.87Z" class="st1"></path>
    <path d="M214.36,46.43c0,4.02-2.9,6.89-6.97,6.89s-6.97-2.87-6.97-6.89,2.9-6.89,6.97-6.89,6.97,2.87,6.97,6.89ZM211.46,46.43c0-2.48-1.7-4.27-4.07-4.27s-4.07,1.78-4.07,4.27,1.7,4.27,4.07,4.27,4.07-1.81,4.07-4.27Z" class="st1"></path>
    <path d="M223.06,50.95c1.7,0,2.87-.56,2.87-1.59,0-.78-.64-1.34-1.76-1.53l-2.9-.5c-2.01-.33-3.88-1.34-3.88-3.71,0-2.54,2.2-4.1,5.47-4.1,2.54,0,5.47.86,5.74,4.29h-2.68c-.14-1.42-1.39-1.98-3.07-1.98s-2.59.61-2.59,1.53c0,.7.5,1.37,2.04,1.62l2.45.39c1.98.36,3.93,1.23,3.93,3.76,0,2.76-2.43,4.18-5.72,4.18-3.09,0-5.74-1.23-6.08-4.68l2.68.03c.31,1.62,1.51,2.29,3.49,2.29Z" class="st1"></path>
    <path d="M123.66,80.77h-10.29c.28,1.98,1.53,3.49,3.99,3.49,1.28,0,2.26-.39,2.79-1.23h3.18c-.84,2.37-3.15,3.76-6,3.76-4.13,0-6.91-2.98-6.91-6.89s2.76-6.89,6.75-6.89c4.35,0,7.05,3.32,6.5,7.75ZM113.43,78.76h7.36c-.17-2.15-1.56-3.29-3.6-3.29-2.17,0-3.43,1.45-3.76,3.29Z" class="st1"></path>
    <path d="M139.95,79.15v7.31h-2.9v-7.14c0-2.4-1.28-3.68-3.4-3.68-1.26,0-2.62.7-3.65,1.98v8.84h-2.9v-13.11h2.9v1.17c1.14-.98,2.56-1.51,4.24-1.51,3.4,0,5.72,2.34,5.72,6.14Z" class="st1"></path>
    <path d="M160.89,86.26c-1.14.42-2.09.53-2.98.53-3.35,0-5.13-2.01-5.13-5.38v-5.63h-3.1v-2.43h3.1v-4.82h2.9v4.82h4.85v2.43h-4.85v5.63c0,1.9.95,2.71,2.57,2.71.78,0,1.56-.22,2.23-.5l.42,2.65Z" class="st1"></path>
    <path d="M164.16,68.53c0-1.03.81-1.78,1.84-1.78s1.84.75,1.84,1.78-.84,1.78-1.84,1.78-1.84-.75-1.84-1.78ZM167.45,73.35v13.11h-2.87v-13.11h2.87Z" class="st1"></path>
    <path d="M184.57,80.77h-10.29c.28,1.98,1.53,3.49,3.99,3.49,1.28,0,2.26-.39,2.79-1.23h3.18c-.84,2.37-3.15,3.76-6,3.76-4.13,0-6.91-2.98-6.91-6.89s2.76-6.89,6.75-6.89c4.35,0,7.05,3.32,6.5,7.75ZM174.34,78.76h7.36c-.17-2.15-1.56-3.29-3.6-3.29-2.17,0-3.43,1.45-3.76,3.29Z" class="st1"></path>
    <path d="M200.86,79.15v7.31h-2.9v-7.14c0-2.4-1.28-3.68-3.4-3.68-1.26,0-2.62.7-3.65,1.98v8.84h-2.9v-13.11h2.9v1.17c1.14-.98,2.57-1.51,4.24-1.51,3.4,0,5.72,2.34,5.72,6.14Z" class="st1"></path>
    <path d="M217.87,66.66v19.8h-2.87v-1.06c-1.12.89-2.54,1.39-4.21,1.39-3.68,0-6.64-3.07-6.64-6.92s2.96-6.86,6.64-6.86c1.67,0,3.09.5,4.21,1.37v-7.72h2.87ZM215,82.24v-4.71c-.98-1.39-2.34-1.9-3.79-1.9-2.4,0-4.15,1.92-4.15,4.24s1.76,4.29,4.15,4.29c1.45,0,2.82-.5,3.79-1.92Z" class="st1"></path>
    <path d="M235.13,73.35v13.11h-2.87v-1.03c-1.12.87-2.54,1.37-4.21,1.37-3.68,0-6.64-3.07-6.64-6.89s2.96-6.89,6.64-6.89c1.67,0,3.09.5,4.21,1.37v-1.03h2.87ZM232.26,82.27v-4.74c-.98-1.39-2.34-1.9-3.79-1.9-2.4,0-4.15,1.92-4.15,4.27s1.76,4.27,4.15,4.27c1.45,0,2.82-.5,3.79-1.9Z" class="st1"></path>
    <path d="M244.7,84.42c1.7,0,2.87-.56,2.87-1.59,0-.78-.64-1.34-1.76-1.53l-2.9-.5c-2.01-.33-3.88-1.34-3.88-3.71,0-2.54,2.2-4.1,5.47-4.1,2.54,0,5.47.87,5.74,4.29h-2.68c-.14-1.42-1.39-1.98-3.07-1.98s-2.59.61-2.59,1.53c0,.7.5,1.37,2.04,1.62l2.45.39c1.98.36,3.93,1.23,3.93,3.76,0,2.76-2.43,4.18-5.72,4.18-3.09,0-5.74-1.23-6.08-4.68l2.68.03c.31,1.62,1.51,2.29,3.49,2.29Z" class="st1"></path>
    <path d="M266.43,73.35h5.19v2.43h-5.19v10.68h-2.87v-10.68h-3.71v-2.43h3.71v-1.76c0-3.26,2.26-5.27,5.35-5.27.86,0,1.73.14,2.76.42l-.42,2.45c-.7-.22-1.48-.36-2.01-.36-1.7,0-2.82,1.06-2.82,2.76v1.76Z" class="st1"></path>
    <path d="M279.59,66.94l-2.7,4.1h-2.65l2.15-4.1h3.21ZM277.11,73.35v13.11h-2.87v-13.11h2.87Z" class="st1"></path>
    <path d="M286.93,84.42c1.7,0,2.87-.56,2.87-1.59,0-.78-.64-1.34-1.76-1.53l-2.9-.5c-2.01-.33-3.88-1.34-3.88-3.71,0-2.54,2.2-4.1,5.47-4.1,2.54,0,5.47.87,5.74,4.29h-2.68c-.14-1.42-1.39-1.98-3.07-1.98s-2.59.61-2.59,1.53c0,.7.5,1.37,2.04,1.62l2.45.39c1.98.36,3.93,1.23,3.93,3.76,0,2.76-2.43,4.18-5.72,4.18-3.09,0-5.74-1.23-6.08-4.68l2.68.03c.31,1.62,1.51,2.29,3.49,2.29Z" class="st1"></path>
    <path d="M296.16,68.53c0-1.03.81-1.78,1.84-1.78s1.84.75,1.84,1.78-.84,1.78-1.84,1.78-1.84-.75-1.84-1.78ZM299.45,73.35v13.11h-2.87v-13.11h2.87Z" class="st1"></path>
    <path d="M313.67,81.69h2.96c-.47,3.01-3.09,5.1-6.39,5.1-3.93,0-6.91-2.98-6.91-6.89s2.98-6.89,6.91-6.89c3.29,0,5.91,2.09,6.39,5.1h-2.96c-.36-1.48-1.67-2.48-3.43-2.48-2.43,0-4.02,1.9-4.02,4.27s1.59,4.27,4.02,4.27c1.76,0,3.07-1,3.43-2.48Z" class="st1"></path>
    <path d="M333.36,73.35v13.11h-2.87v-1.03c-1.12.87-2.54,1.37-4.21,1.37-3.68,0-6.64-3.07-6.64-6.89s2.96-6.89,6.64-6.89c1.67,0,3.09.5,4.21,1.37v-1.03h2.87ZM330.49,82.27v-4.74c-.98-1.39-2.34-1.9-3.79-1.9-2.4,0-4.15,1.92-4.15,4.27s1.76,4.27,4.15,4.27c1.45,0,2.82-.5,3.79-1.9Z" class="st1"></path>
    <path d="M342.93,84.42c1.7,0,2.87-.56,2.87-1.59,0-.78-.64-1.34-1.76-1.53l-2.9-.5c-2.01-.33-3.88-1.34-3.88-3.71,0-2.54,2.2-4.1,5.47-4.1,2.54,0,5.47.87,5.74,4.29h-2.68c-.14-1.42-1.39-1.98-3.07-1.98s-2.59.61-2.59,1.53c0,.7.5,1.37,2.04,1.62l2.45.39c1.98.36,3.93,1.23,3.93,3.76,0,2.76-2.43,4.18-5.72,4.18-3.09,0-5.74-1.23-6.08-4.68l2.68.03c.31,1.62,1.51,2.29,3.49,2.29Z" class="st1"></path>
  </g>
  <g>
    <path d="M512.8,59.95v2.96c-1.29,26.87-30.53,43.44-54.17,29.89-23.52-13.48-24.34-47.19-1.51-61.83,23.55-15.1,54.43,1.35,55.68,28.98ZM474.3,30.39c-23.93,1.55-36.95,29.25-23.16,48.92,13.02,18.59,41.07,17.31,52.4-2.32,12.56-21.73-4.41-48.21-29.24-46.6Z" class="st1"></path>
    <path d="M476.45,38.72c1.49-.11,2.65,1.17,2.72,2.6-.41,6.48.56,13.65,0,20.05-.05.6-.2,1.22-.61,1.68l-10.49,10.49c-2.2,1.54-4.98-.71-3.81-3.14l9.77-10.01.04-19.33c.1-1.24,1.15-2.25,2.38-2.34Z" class="st1"></path>
  </g>
  <g>
    <path d="M546.84,36.79h-6.72v16.2h-2.98v-16.2h-6.72v-2.76h16.42v2.76Z" class="st1"></path>
    <path d="M549.49,35.06c0-1.03.81-1.78,1.84-1.78s1.84.75,1.84,1.78-.84,1.78-1.84,1.78-1.84-.75-1.84-1.78ZM552.78,39.88v13.11h-2.87v-13.11h2.87Z" class="st1"></path>
    <path d="M569.9,47.3h-10.29c.28,1.98,1.53,3.49,3.99,3.49,1.28,0,2.26-.39,2.79-1.23h3.18c-.84,2.37-3.15,3.76-6,3.76-4.13,0-6.91-2.98-6.91-6.89s2.76-6.89,6.75-6.89c4.35,0,7.05,3.32,6.5,7.75ZM559.67,45.29h7.36c-.17-2.15-1.56-3.29-3.6-3.29-2.17,0-3.43,1.45-3.76,3.29Z" class="st1"></path>
    <path d="M586.19,45.68v7.31h-2.9v-7.14c0-2.4-1.28-3.68-3.4-3.68-1.26,0-2.62.7-3.65,1.98v8.84h-2.9v-13.11h2.9v1.17c1.14-.98,2.56-1.51,4.24-1.51,3.4,0,5.72,2.34,5.72,6.13Z" class="st1"></path>
    <path d="M603.21,33.19v19.8h-2.87v-1.06c-1.12.89-2.54,1.39-4.21,1.39-3.68,0-6.64-3.07-6.64-6.91s2.96-6.86,6.64-6.86c1.67,0,3.09.5,4.21,1.37v-7.72h2.87ZM600.33,48.78v-4.71c-.98-1.39-2.34-1.9-3.79-1.9-2.4,0-4.15,1.92-4.15,4.24s1.76,4.29,4.15,4.29c1.45,0,2.82-.5,3.79-1.92Z" class="st1"></path>
    <path d="M620.47,39.88v13.11h-2.87v-1.03c-1.12.86-2.54,1.37-4.21,1.37-3.68,0-6.64-3.07-6.64-6.89s2.96-6.89,6.64-6.89c1.67,0,3.09.5,4.21,1.37v-1.03h2.87ZM617.6,48.8v-4.74c-.98-1.39-2.34-1.9-3.79-1.9-2.4,0-4.15,1.92-4.15,4.27s1.76,4.27,4.15,4.27c1.45,0,2.82-.5,3.79-1.9Z" class="st1"></path>
    <path d="M645.74,46.43c0,4.02-2.9,6.89-6.97,6.89s-6.97-2.87-6.97-6.89,2.9-6.89,6.97-6.89,6.97,2.87,6.97,6.89ZM642.84,46.43c0-2.48-1.7-4.27-4.07-4.27s-4.07,1.78-4.07,4.27,1.7,4.27,4.07,4.27,4.07-1.81,4.07-4.27Z" class="st1"></path>
    <path d="M661.97,45.68v7.31h-2.9v-7.14c0-2.4-1.28-3.68-3.4-3.68-1.26,0-2.62.7-3.65,1.98v8.84h-2.9v-13.11h2.9v1.17c1.14-.98,2.56-1.51,4.24-1.51,3.4,0,5.72,2.34,5.72,6.13Z" class="st1"></path>
    <path d="M668.8,33.19v19.8h-2.9v-19.8h2.9Z" class="st1"></path>
    <path d="M673.1,35.06c0-1.03.81-1.78,1.84-1.78s1.84.75,1.84,1.78-.84,1.78-1.84,1.78-1.84-.75-1.84-1.78ZM676.39,39.88v13.11h-2.87v-13.11h2.87Z" class="st1"></path>
    <path d="M693.93,45.68v7.31h-2.9v-7.14c0-2.4-1.28-3.68-3.4-3.68-1.26,0-2.62.7-3.65,1.98v8.84h-2.9v-13.11h2.9v1.17c1.14-.98,2.57-1.51,4.24-1.51,3.4,0,5.72,2.34,5.72,6.13Z" class="st1"></path>
    <path d="M710.47,47.3h-10.29c.28,1.98,1.53,3.49,3.99,3.49,1.28,0,2.26-.39,2.79-1.23h3.18c-.84,2.37-3.15,3.76-6,3.76-4.13,0-6.91-2.98-6.91-6.89s2.76-6.89,6.75-6.89c4.35,0,7.05,3.32,6.5,7.75ZM700.23,45.29h7.36c-.17-2.15-1.56-3.29-3.6-3.29-2.17,0-3.43,1.45-3.76,3.29Z" class="st1"></path>
    <path d="M543.86,84v2.45h-12.66v-1.56l6.02-6.83c2.06-2.26,3.37-3.65,3.37-5.35,0-1.56-1.06-2.95-3.35-2.95-2.06,0-3.4,1.2-3.63,3.23h-2.96c.11-3.51,2.73-5.83,6.66-5.83s6.27,2.51,6.27,5.58c0,2.12-1.31,3.71-3.9,6.58l-4.15,4.69h8.31Z" class="st1"></path>
    <path d="M560.95,82.52h-2.73v3.93h-2.9v-3.93h-9.93v-1.84l5.52-13.19h3.07l-5.1,12.46h6.44v-5.77h2.9v5.77h2.73v2.57Z" class="st1"></path>
    <path d="M566.48,90.92h-2.79l7.17-24.82h2.79l-7.17,24.82Z" class="st1"></path>
    <path d="M588.51,67.49v1.81l-8.14,17.15h-3.32l7.7-16.17h-9.34v-2.79h13.11Z" class="st1"></path>
  </g>
  <g>
    <path d="M904.44,45.67h3.09c-.89,4.55-4.43,7.56-9.17,7.56-5.47,0-9.84-4.18-9.84-9.84s4.38-9.82,9.84-9.82c4.74,0,8.28,2.96,9.17,7.5h-3.09c-.75-2.93-2.93-4.71-6.08-4.71-3.88,0-6.8,2.93-6.8,7.03s2.93,7.03,6.8,7.03c3.15,0,5.33-1.78,6.08-4.74Z" class="st1"></path>
    <path d="M924.24,46.31c0,4.02-2.9,6.89-6.97,6.89s-6.97-2.87-6.97-6.89,2.9-6.89,6.97-6.89,6.97,2.87,6.97,6.89ZM921.34,46.31c0-2.48-1.7-4.27-4.07-4.27s-4.07,1.78-4.07,4.27,1.7,4.27,4.07,4.27,4.07-1.81,4.07-4.27Z" class="st1"></path>
    <path d="M949.2,45.36v7.5h-2.87v-7.5c0-2.31-1.23-3.32-3.1-3.32-1.28,0-2.51.47-3.49,1.78.08.42.11.89.11,1.37v7.67h-2.87v-7.67c0-2.31-1.23-3.15-2.93-3.15-1.37,0-2.59.56-3.54,1.87v8.95h-2.9v-13.11h2.9v1.12c.98-.89,2.15-1.45,3.88-1.45,1.87,0,3.37.64,4.35,1.9,1.28-1.25,2.76-1.9,4.69-1.9,3.43,0,5.77,2.06,5.77,5.94Z" class="st1"></path>
    <path d="M966.92,46.31c0,3.82-2.98,6.86-6.66,6.86-1.67,0-3.1-.5-4.18-1.34v7.5h-2.9v-19.57h2.9v1.03c1.09-.84,2.51-1.34,4.18-1.34,3.68,0,6.66,3.04,6.66,6.86ZM964.02,46.31c0-2.34-1.76-4.35-4.18-4.35-1.45,0-2.79.56-3.76,1.95v4.8c.98,1.39,2.31,1.95,3.76,1.95,2.43,0,4.18-2.01,4.18-4.35Z" class="st1"></path>
    <path d="M978.02,39.48v2.73c-2.09.08-3.68.86-4.85,2.4v8.25h-2.9v-13.11h2.9v1.78c1.2-1.31,2.84-2.06,4.85-2.06Z" class="st1"></path>
    <path d="M993.63,39.75v13.11h-2.87v-1.03c-1.12.86-2.54,1.37-4.21,1.37-3.68,0-6.64-3.07-6.64-6.89s2.95-6.89,6.64-6.89c1.67,0,3.1.5,4.21,1.37v-1.03h2.87ZM990.76,48.68v-4.74c-.98-1.39-2.34-1.9-3.79-1.9-2.4,0-4.16,1.92-4.16,4.27s1.76,4.27,4.16,4.27c1.45,0,2.82-.5,3.79-1.9Z" class="st1"></path>
    <path d="M1003.2,50.82c1.7,0,2.87-.56,2.87-1.59,0-.78-.64-1.34-1.76-1.53l-2.9-.5c-2.01-.33-3.88-1.34-3.88-3.71,0-2.54,2.2-4.1,5.47-4.1,2.54,0,5.47.86,5.74,4.29h-2.68c-.14-1.42-1.39-1.98-3.07-1.98s-2.59.61-2.59,1.53c0,.7.5,1.37,2.04,1.62l2.45.39c1.98.36,3.93,1.23,3.93,3.76,0,2.76-2.43,4.18-5.72,4.18-3.1,0-5.74-1.23-6.08-4.68l2.68.03c.31,1.62,1.51,2.29,3.49,2.29Z" class="st1"></path>
    <path d="M900.96,83.87v2.45h-12.86v-2.45h5.1v-13.22l-4.82,1.7v-2.76l6.11-2.23h1.7v16.51h4.77Z" class="st1"></path>
    <path d="M919.17,76.85c0,5.72-3.07,9.81-8.37,9.81s-8.39-4.1-8.39-9.81,3.09-9.82,8.39-9.82,8.37,4.07,8.37,9.82ZM916.13,76.85c0-4.1-1.81-7.11-5.33-7.11s-5.38,3.01-5.38,7.11,1.81,7.11,5.38,7.11,5.33-3.01,5.33-7.11Z" class="st1"></path>
    <path d="M939.47,76.85c0,5.72-3.07,9.81-8.36,9.81s-8.39-4.1-8.39-9.81,3.1-9.82,8.39-9.82,8.36,4.07,8.36,9.82ZM936.43,76.85c0-4.1-1.81-7.11-5.33-7.11s-5.38,3.01-5.38,7.11,1.81,7.11,5.38,7.11,5.33-3.01,5.33-7.11Z" class="st1"></path>
    <path d="M953.84,72.39c0,3.23-2.34,5.41-5.41,5.41s-5.41-2.17-5.41-5.41,2.34-5.35,5.41-5.35,5.41,2.17,5.41,5.35ZM951.66,72.39c0-1.92-1.45-3.26-3.23-3.26s-3.23,1.34-3.23,3.26,1.45,3.32,3.23,3.32,3.23-1.37,3.23-3.32ZM950.27,86.33h-2.06l12.83-18.96h2.06l-12.83,18.96ZM968.62,81.25c0,3.23-2.37,5.41-5.44,5.41s-5.41-2.17-5.41-5.41,2.37-5.35,5.41-5.35,5.44,2.17,5.44,5.35ZM966.41,81.25c0-1.92-1.45-3.26-3.23-3.26s-3.21,1.34-3.21,3.26,1.45,3.32,3.21,3.32,3.23-1.37,3.23-3.32Z" class="st1"></path>
    <path d="M986.16,84.29c1.7,0,2.87-.56,2.87-1.59,0-.78-.64-1.34-1.76-1.53l-2.9-.5c-2.01-.33-3.88-1.34-3.88-3.71,0-2.54,2.2-4.1,5.47-4.1,2.54,0,5.47.87,5.74,4.29h-2.68c-.14-1.42-1.39-1.98-3.07-1.98s-2.59.61-2.59,1.53c0,.7.5,1.37,2.04,1.62l2.45.39c1.98.36,3.93,1.23,3.93,3.76,0,2.76-2.43,4.18-5.72,4.18-3.1,0-5.74-1.23-6.08-4.68l2.68.03c.31,1.62,1.51,2.29,3.49,2.29Z" class="st1"></path>
    <path d="M1007.75,80.64h-10.29c.28,1.98,1.53,3.49,3.99,3.49,1.28,0,2.26-.39,2.79-1.23h3.18c-.84,2.37-3.15,3.76-5.99,3.76-4.13,0-6.92-2.98-6.92-6.89s2.76-6.89,6.75-6.89c4.35,0,7.05,3.32,6.5,7.75ZM997.51,78.63h7.36c-.17-2.15-1.56-3.29-3.6-3.29-2.18,0-3.43,1.45-3.77,3.29Z" class="st1"></path>
    <path d="M1024.29,73.22v13.47c0,3.99-2.7,6.39-6.64,6.39-3.68,0-6.39-2.17-6.75-5.3h2.96c.25,1.59,1.65,2.68,3.79,2.68s3.76-1.37,3.76-3.76v-2.06c-1.12.87-2.59,1.37-4.27,1.37-3.68,0-6.58-2.96-6.58-6.47,0-3.9,2.9-6.64,6.58-6.64,1.67,0,3.15.5,4.27,1.37v-1.03h2.87ZM1021.41,81.48v-4.07c-.98-1.45-2.4-2.04-3.85-2.04-2.43,0-4.1,1.73-4.1,4.15,0,2.01,1.67,3.96,4.1,3.96,1.45,0,2.87-.56,3.85-2.01Z" class="st1"></path>
    <path d="M1040.91,73.22v13.11h-2.87v-1.28c-1.14,1.03-2.57,1.62-4.27,1.62-3.4,0-5.69-2.43-5.69-6.19v-7.25h2.87v7.08c0,2.4,1.31,3.74,3.4,3.74,1.28,0,2.62-.73,3.68-2.06v-8.76h2.87Z" class="st1"></path>
    <path d="M1052.96,72.94v2.73c-2.09.08-3.68.87-4.85,2.4v8.25h-2.9v-13.11h2.9v1.78c1.2-1.31,2.84-2.06,4.85-2.06Z" class="st1"></path>
    <path d="M1068.57,73.22v13.11h-2.87v-1.03c-1.12.87-2.54,1.37-4.21,1.37-3.68,0-6.64-3.07-6.64-6.89s2.95-6.89,6.64-6.89c1.67,0,3.1.5,4.21,1.37v-1.03h2.87ZM1065.7,82.15v-4.74c-.98-1.39-2.34-1.9-3.79-1.9-2.4,0-4.16,1.92-4.16,4.27s1.76,4.27,4.16,4.27c1.45,0,2.82-.5,3.79-1.9Z" class="st1"></path>
    <path d="M1078.14,84.29c1.7,0,2.87-.56,2.87-1.59,0-.78-.64-1.34-1.76-1.53l-2.9-.5c-2.01-.33-3.88-1.34-3.88-3.71,0-2.54,2.2-4.1,5.47-4.1,2.54,0,5.47.87,5.74,4.29h-2.68c-.14-1.42-1.39-1.98-3.07-1.98s-2.59.61-2.59,1.53c0,.7.5,1.37,2.04,1.62l2.45.39c1.98.36,3.93,1.23,3.93,3.76,0,2.76-2.43,4.18-5.72,4.18-3.1,0-5.74-1.23-6.08-4.68l2.68.03c.31,1.62,1.51,2.29,3.49,2.29Z" class="st1"></path>
  </g>
  <g>
    <path d="M1268.82,74.43c-.24,1.77-1.75,3.81-3.38,4.55-11.06,4.3-21.89,9.96-32.95,14.16-3.71,1.41-7.18,1.81-11.08.77l-19.78-7.78c.01,1.61-.22,2.9-1.88,3.51l-10.27.03c-1.02-.27-1.84-1.15-1.93-2.22v-24.5c.02-1.14.86-2.08,1.93-2.37,3.19.26,7.04-.39,10.15-.01.69.08,1.92,1.08,1.92,1.78v2.54l4.56-2.6c12.16-5.37,22.16,2.92,32.77,7.68l1.1,1.05,12.99-5.28c2.54-.8,5.43.18,6.71,2.55,1.78-.62,3.14-1.03,5.02-.43,2.05.65,3.83,2.74,4.12,4.89.05.38.05,1.31,0,1.69ZM1189.69,87.52c.28.07.54.14.84.16,2.09.16,5.95.19,8.02,0,.32-.03.85-.06.97-.42l-.05-24.39c-.03-.07-.28-.31-.31-.31h-9.24l-.23.23v24.72ZM1220.83,72.93c.07-.07.59-.31.69-.32l12.05,5.29c4.34,1.81,7.45-3.85,3.65-6.57-10.49-4.31-19.9-12.79-31.62-6.47-1.44.77-2.72,1.83-4.06,2.75v16.11s19.78,7.96,19.78,7.96c3.49,1.06,6.7.85,10.09-.39,10.87-3.99,21.56-9.8,32.44-13.91,4.67-1.62,3.28-8.3-1.68-7.69l-22.79,8.93c-2.32,2.09-4.54,2.01-7.3.91-3.7-1.47-7.35-3.45-11.03-4.98-.56-.19-.52-1.3-.21-1.63ZM1240.96,73.27c.05.84-.04,1.7,0,2.54l16.78-6.63c-.55-1.24-2.28-1.84-3.55-1.62l-13.39,5.32c-.06.16.15.31.16.38Z" class="st0"></path>
    <path d="M1237.54,26.72c16.48-1.39,26.64,17.08,16.35,30.06-8.6,10.85-25.85,8.43-31.38-4.18-4.97-11.33,2.64-24.84,15.03-25.89ZM1238.92,28.73c-13.3.41-20.54,15.82-12.5,26.43,7.13,9.41,21.94,8.21,27.49-2.19,5.98-11.18-2.38-24.63-14.99-24.24Z" class="st0"></path>
    <path d="M1238.49,46.16l-.26-.2c-2.34-.13-4.57-1.23-5.09-3.69-.8-3.78,1.84-6.01,5.28-6.65l.07-1.86h2s0,2,0,2c1.58.08,3.1.9,4.16,2.08.19.21.83,1.05.9,1.26.09.27-1.19.79-1.37,1.06l-.36.07c-.77-1.2-1.82-2.25-3.33-2.3v6.01c7.79.25,7.41,9.9,0,10.48v2s-2.01,0-2.01,0l-.07-1.86c-2.49-.5-4.33-1.78-5.47-4.07l1.99-.99c.44,1.48,1.97,2.77,3.55,2.77v-6.08ZM1238.49,37.92c-3.48-.07-4.96,4.77-1.24,5.78.32.09,1.04.28,1.24,0v-5.78ZM1240.49,52.25c4.58-.27,5.02-6.25,0-6.16v6.16Z" class="st0"></path>
  </g>
  <g>
    <path d="M1303.09,39.64c0,4.07-3.12,6.78-7.86,6.78h-3.57v5.72h-3.01v-18.96h7c4.49,0,7.44,2.59,7.44,6.47ZM1300.13,39.64c0-2.2-1.84-3.71-4.57-3.71h-3.9v7.72h3.9c2.73,0,4.57-1.62,4.57-4.02Z" class="st1"></path>
    <path d="M1318.65,39.03v13.11h-2.87v-1.03c-1.12.86-2.54,1.37-4.21,1.37-3.68,0-6.64-3.07-6.64-6.89s2.95-6.89,6.64-6.89c1.67,0,3.1.5,4.21,1.37v-1.03h2.87ZM1315.78,47.95v-4.74c-.98-1.39-2.34-1.9-3.79-1.9-2.4,0-4.16,1.92-4.16,4.27s1.76,4.27,4.16,4.27c1.45,0,2.82-.5,3.79-1.9Z" class="st1"></path>
    <path d="M1336.02,39.03v13.47c0,3.99-2.7,6.39-6.64,6.39-3.68,0-6.39-2.18-6.75-5.3h2.96c.25,1.59,1.65,2.68,3.79,2.68s3.76-1.37,3.76-3.76v-2.06c-1.12.86-2.59,1.37-4.27,1.37-3.68,0-6.58-2.96-6.58-6.47,0-3.9,2.9-6.64,6.58-6.64,1.67,0,3.15.5,4.27,1.37v-1.03h2.87ZM1333.15,47.28v-4.07c-.98-1.45-2.4-2.04-3.85-2.04-2.43,0-4.1,1.73-4.1,4.15,0,2.01,1.67,3.96,4.1,3.96,1.45,0,2.87-.56,3.85-2.01Z" class="st1"></path>
    <path d="M1353.15,39.03v13.11h-2.87v-1.03c-1.12.86-2.54,1.37-4.21,1.37-3.68,0-6.64-3.07-6.64-6.89s2.95-6.89,6.64-6.89c1.67,0,3.1.5,4.21,1.37v-1.03h2.87ZM1350.28,47.95v-4.74c-.98-1.39-2.34-1.9-3.79-1.9-2.4,0-4.16,1.92-4.16,4.27s1.76,4.27,4.16,4.27c1.45,0,2.82-.5,3.79-1.9Z" class="st1"></path>
    <path d="M1377.72,46.45h-10.29c.28,1.98,1.53,3.49,3.99,3.49,1.28,0,2.26-.39,2.79-1.23h3.18c-.84,2.37-3.15,3.76-5.99,3.76-4.13,0-6.92-2.98-6.92-6.89s2.76-6.89,6.75-6.89c4.35,0,7.05,3.32,6.5,7.75ZM1367.48,44.44h7.36c-.17-2.15-1.56-3.29-3.6-3.29-2.18,0-3.43,1.45-3.77,3.29Z" class="st1"></path>
    <path d="M1394.01,44.83v7.31h-2.9v-7.14c0-2.4-1.28-3.68-3.4-3.68-1.26,0-2.62.7-3.65,1.98v8.84h-2.9v-13.11h2.9v1.17c1.14-.98,2.56-1.51,4.24-1.51,3.4,0,5.72,2.34,5.72,6.13Z" class="st1"></path>
    <path d="M1408.51,32.34v19.8h-2.9v-19.8h2.9Z" class="st1"></path>
    <path d="M1418.44,32.61l-2.7,4.1h-2.65l2.15-4.1h3.21ZM1415.96,39.03v13.11h-2.87v-13.11h2.87Z" class="st1"></path>
    <path d="M1433.36,44.83v7.31h-2.9v-7.14c0-2.4-1.28-3.68-3.4-3.68-1.26,0-2.62.7-3.65,1.98v8.84h-2.9v-13.11h2.9v1.17c1.14-.98,2.56-1.51,4.24-1.51,3.4,0,5.72,2.34,5.72,6.13Z" class="st1"></path>
    <path d="M1449.9,46.45h-10.29c.28,1.98,1.53,3.49,3.99,3.49,1.28,0,2.26-.39,2.79-1.23h3.18c-.84,2.37-3.15,3.76-5.99,3.76-4.13,0-6.92-2.98-6.92-6.89s2.76-6.89,6.75-6.89c4.35,0,7.05,3.32,6.5,7.75ZM1439.66,44.44h7.36c-.17-2.15-1.56-3.29-3.6-3.29-2.18,0-3.43,1.45-3.77,3.29Z" class="st1"></path>
    <path d="M1466.69,39.03v13.11h-2.87v-1.03c-1.12.86-2.54,1.37-4.21,1.37-3.68,0-6.64-3.07-6.64-6.89s2.95-6.89,6.64-6.89c1.67,0,3.1.5,4.21,1.37v-1.03h2.87ZM1463.81,47.95v-4.74c-.98-1.39-2.34-1.9-3.79-1.9-2.4,0-4.16,1.92-4.16,4.27s1.76,4.27,4.16,4.27c1.45,0,2.82-.5,3.79-1.9Z" class="st1"></path>
    <path d="M1301.69,79.05c0,4.02-2.9,6.89-6.97,6.89s-6.97-2.87-6.97-6.89,2.9-6.89,6.97-6.89,6.97,2.87,6.97,6.89ZM1298.79,79.05c0-2.48-1.7-4.27-4.07-4.27s-4.07,1.78-4.07,4.27,1.7,4.27,4.07,4.27,4.07-1.81,4.07-4.27Z" class="st1"></path>
    <path d="M1333.29,79.91h-10.29c.28,1.98,1.53,3.49,3.99,3.49,1.28,0,2.26-.39,2.79-1.23h3.18c-.84,2.37-3.15,3.76-5.99,3.76-4.13,0-6.92-2.98-6.92-6.89s2.76-6.89,6.75-6.89c4.35,0,7.05,3.32,6.5,7.75ZM1323.06,77.91h7.36c-.17-2.15-1.56-3.29-3.6-3.29-2.18,0-3.43,1.45-3.77,3.29Z" class="st1"></path>
    <path d="M1341.21,72.5h5.19v2.43h-5.19v10.68h-2.87v-10.68h-3.71v-2.43h3.71v-1.76c0-3.26,2.26-5.27,5.35-5.27.87,0,1.73.14,2.76.42l-.42,2.45c-.7-.22-1.48-.36-2.01-.36-1.7,0-2.82,1.06-2.82,2.76v1.76Z" class="st1"></path>
    <path d="M1360.93,79.91h-10.29c.28,1.98,1.53,3.49,3.99,3.49,1.28,0,2.26-.39,2.79-1.23h3.18c-.84,2.37-3.15,3.76-5.99,3.76-4.13,0-6.92-2.98-6.92-6.89s2.76-6.89,6.75-6.89c4.35,0,7.05,3.32,6.5,7.75ZM1350.7,77.91h7.36c-.17-2.15-1.56-3.29-3.6-3.29-2.18,0-3.43,1.45-3.77,3.29Z" class="st1"></path>
    <path d="M1374.35,80.83h2.95c-.47,3.01-3.1,5.1-6.38,5.1-3.93,0-6.92-2.98-6.92-6.89s2.98-6.89,6.92-6.89c3.29,0,5.91,2.09,6.38,5.1h-2.95c-.36-1.48-1.67-2.48-3.43-2.48-2.43,0-4.02,1.9-4.02,4.27s1.59,4.27,4.02,4.27c1.76,0,3.07-1,3.43-2.48Z" class="st1"></path>
    <path d="M1390.27,85.41c-1.14.42-2.09.53-2.98.53-3.35,0-5.13-2.01-5.13-5.38v-5.63h-3.1v-2.43h3.1v-4.82h2.9v4.82h4.85v2.43h-4.85v5.63c0,1.9.95,2.71,2.57,2.71.78,0,1.56-.22,2.23-.5l.42,2.65Z" class="st1"></path>
    <path d="M1393.53,67.67c0-1.03.81-1.78,1.84-1.78s1.84.75,1.84,1.78-.84,1.78-1.84,1.78-1.84-.75-1.84-1.78ZM1396.83,72.5v13.11h-2.87v-13.11h2.87Z" class="st1"></path>
    <path d="M1414.51,72.5l-6.11,13.11h-2.54l-6.11-13.11h3.07l4.32,9.4,4.29-9.4h3.07Z" class="st1"></path>
    <path d="M1429.62,79.05c0,4.02-2.9,6.89-6.97,6.89s-6.97-2.87-6.97-6.89,2.9-6.89,6.97-6.89,6.97,2.87,6.97,6.89ZM1426.72,79.05c0-2.48-1.7-4.27-4.07-4.27s-4.07,1.78-4.07,4.27,1.7,4.27,4.07,4.27,4.07-1.81,4.07-4.27Z" class="st1"></path>
  </g>
  <g>
    <path d="M1609.34,24.28l1.58-.04c14.35.49,25.89,12.08,26.31,26.45.43,14.63-13.1,32.64-22.84,42.76-.61.64-2.73,2.9-3.39,3.1-.41.12-1.08.12-1.49,0-.68-.2-3.11-2.79-3.75-3.47-9.87-10.34-23.28-28.31-22.47-43.26.74-13.67,12.33-25.15,26.05-25.53ZM1608.01,28.56c-11.09.93-20.1,10.66-20.6,21.7-.57,12.79,11.13,28.71,19.37,37.81.4.45,3.27,3.57,3.52,3.52,6.25-6.59,12.29-13.76,16.77-21.71,2.48-4.4,4.93-9.78,5.68-14.81,2.22-14.98-9.61-27.79-24.74-26.52Z" class="st1"></path>
    <path d="M1609.34,38.14c10.35-.75,17.39,10.49,12.34,19.56-4.69,8.43-16.78,8.99-22.24,1.01-5.75-8.42-.21-19.85,9.9-20.58ZM1608.74,42.41c-3.92.49-7.27,4.38-7.48,8.28-.38,6.99,6.98,11.81,13.22,8.51,8.69-4.6,4.65-18.09-5.73-16.79Z" class="st1"></path>
  </g>
  <g>
    <path d="M1655.07,35.8v5.44h9.48v2.76h-9.48v5.21h10.6v2.79h-13.61v-18.96h13.61v2.76h-10.6Z" class="st1"></path>
    <path d="M1682.26,44.7v7.31h-2.9v-7.14c0-2.4-1.28-3.68-3.4-3.68-1.26,0-2.62.7-3.65,1.98v8.84h-2.9v-13.11h2.9v1.17c1.14-.98,2.56-1.51,4.24-1.51,3.4,0,5.72,2.34,5.72,6.13Z" class="st1"></path>
    <path d="M1698.96,38.9l-6.11,13.11h-2.54l-6.11-13.11h3.07l4.32,9.4,4.29-9.4h3.07Z" class="st1"></path>
    <path d="M1707.55,32.49l-2.7,4.1h-2.65l2.15-4.1h3.21ZM1705.07,38.9v13.11h-2.87v-13.11h2.87Z" class="st1"></path>
    <path d="M1722.92,45.45c0,4.02-2.9,6.89-6.97,6.89s-6.97-2.87-6.97-6.89,2.9-6.89,6.97-6.89,6.97,2.87,6.97,6.89ZM1720.02,45.45c0-2.48-1.7-4.27-4.07-4.27s-4.07,1.78-4.07,4.27,1.7,4.27,4.07,4.27,4.07-1.81,4.07-4.27Z" class="st1"></path>
    <path d="M1731.62,49.97c1.7,0,2.87-.56,2.87-1.59,0-.78-.64-1.34-1.76-1.53l-2.9-.5c-2.01-.33-3.88-1.34-3.88-3.71,0-2.54,2.2-4.1,5.47-4.1,2.54,0,5.47.86,5.74,4.29h-2.68c-.14-1.42-1.39-1.98-3.07-1.98s-2.59.61-2.59,1.53c0,.7.5,1.37,2.04,1.62l2.45.39c1.98.36,3.93,1.23,3.93,3.76,0,2.76-2.43,4.18-5.72,4.18-3.1,0-5.74-1.23-6.08-4.68l2.68.03c.31,1.62,1.51,2.29,3.49,2.29Z" class="st1"></path>
    <path d="M1761.24,46.32h-10.29c.28,1.98,1.53,3.49,3.99,3.49,1.28,0,2.26-.39,2.79-1.23h3.18c-.84,2.37-3.15,3.76-5.99,3.76-4.13,0-6.92-2.98-6.92-6.89s2.76-6.89,6.75-6.89c4.35,0,7.05,3.32,6.5,7.75ZM1751,44.31h7.36c-.17-2.15-1.56-3.29-3.6-3.29-2.18,0-3.43,1.45-3.77,3.29Z" class="st1"></path>
    <path d="M1777.53,44.7v7.31h-2.9v-7.14c0-2.4-1.28-3.68-3.4-3.68-1.26,0-2.62.7-3.65,1.98v8.84h-2.9v-13.11h2.9v1.17c1.14-.98,2.56-1.51,4.24-1.51,3.4,0,5.72,2.34,5.72,6.13Z" class="st1"></path>
    <path d="M1790.69,51.81c-1.14.42-2.09.53-2.98.53-3.35,0-5.13-2.01-5.13-5.38v-5.63h-3.1v-2.43h3.1v-4.82h2.9v4.82h4.85v2.43h-4.85v5.63c0,1.9.95,2.7,2.57,2.7.78,0,1.56-.22,2.23-.5l.42,2.65Z" class="st1"></path>
    <path d="M1801.62,38.62v2.73c-2.09.08-3.68.86-4.85,2.4v8.25h-2.9v-13.11h2.9v1.78c1.2-1.31,2.84-2.06,4.85-2.06Z" class="st1"></path>
    <path d="M1816.77,46.32h-10.29c.28,1.98,1.53,3.49,3.99,3.49,1.28,0,2.26-.39,2.79-1.23h3.18c-.84,2.37-3.15,3.76-5.99,3.76-4.13,0-6.92-2.98-6.92-6.89s2.76-6.89,6.75-6.89c4.35,0,7.05,3.32,6.5,7.75ZM1806.53,44.31h7.36c-.17-2.15-1.56-3.29-3.6-3.29-2.18,0-3.43,1.45-3.77,3.29Z" class="st1"></path>
    <path d="M1664.35,80.26c0,3.18-2.73,5.55-6.47,5.55s-6.41-2.04-6.89-5.3h2.9c.33,1.67,1.87,2.73,3.99,2.73s3.65-1.26,3.65-2.98c0-1.87-1.56-3.04-3.9-3.04h-1.5v-2.43h1.5c1.98,0,3.29-1.23,3.29-3.01s-1.34-3.04-3.32-3.04-3.23,1.09-3.43,2.76h-2.93c.25-3.21,2.73-5.33,6.36-5.33s6.14,2.31,6.14,5.58c0,1.81-.78,3.26-2.17,4.13,1.78.84,2.79,2.37,2.79,4.38Z" class="st1"></path>
    <path d="M1688.81,72.37v13.11h-2.87v-1.03c-1.12.87-2.54,1.37-4.21,1.37-3.68,0-6.64-3.07-6.64-6.89s2.95-6.89,6.64-6.89c1.67,0,3.1.5,4.21,1.37v-1.03h2.87ZM1685.94,81.29v-4.74c-.98-1.39-2.34-1.9-3.79-1.9-2.4,0-4.16,1.92-4.16,4.27s1.76,4.27,4.16,4.27c1.45,0,2.82-.5,3.79-1.9Z" class="st1"></path>
    <path d="M1712.85,83.02v2.45h-12.85v-2.45h5.1v-13.22l-4.82,1.7v-2.76l6.11-2.23h1.7v16.51h4.77Z" class="st1"></path>
    <path d="M1731.06,75.99c0,5.72-3.07,9.81-8.36,9.81s-8.39-4.1-8.39-9.81,3.1-9.82,8.39-9.82,8.36,4.07,8.36,9.82ZM1728.02,75.99c0-4.1-1.81-7.11-5.33-7.11s-5.38,3.01-5.38,7.11,1.81,7.11,5.38,7.11,5.33-3.01,5.33-7.11Z" class="st1"></path>
    <path d="M1755.72,65.67v19.8h-2.87v-1.06c-1.12.89-2.54,1.39-4.21,1.39-3.68,0-6.64-3.07-6.64-6.92s2.95-6.86,6.64-6.86c1.67,0,3.1.5,4.21,1.37v-7.72h2.87ZM1752.85,81.26v-4.71c-.98-1.39-2.34-1.9-3.79-1.9-2.4,0-4.16,1.92-4.16,4.24s1.76,4.29,4.16,4.29c1.45,0,2.82-.5,3.79-1.92Z" class="st1"></path>
    <path d="M1765.65,65.95l-2.7,4.1h-2.65l2.15-4.1h3.21ZM1763.17,72.37v13.11h-2.87v-13.11h2.87Z" class="st1"></path>
    <path d="M1780.79,72.37v13.11h-2.87v-1.03c-1.12.87-2.54,1.37-4.21,1.37-3.68,0-6.64-3.07-6.64-6.89s2.95-6.89,6.64-6.89c1.67,0,3.1.5,4.21,1.37v-1.03h2.87ZM1777.92,81.29v-4.74c-.98-1.39-2.34-1.9-3.79-1.9-2.4,0-4.16,1.92-4.16,4.27s1.76,4.27,4.16,4.27c1.45,0,2.82-.5,3.79-1.9Z" class="st1"></path>
    <path d="M1790.36,83.44c1.7,0,2.87-.56,2.87-1.59,0-.78-.64-1.34-1.76-1.53l-2.9-.5c-2.01-.33-3.88-1.34-3.88-3.71,0-2.54,2.2-4.1,5.47-4.1,2.54,0,5.47.87,5.74,4.29h-2.68c-.14-1.42-1.39-1.98-3.07-1.98s-2.59.61-2.59,1.53c0,.7.5,1.37,2.04,1.62l2.45.39c1.98.36,3.93,1.23,3.93,3.76,0,2.76-2.43,4.18-5.72,4.18-3.1,0-5.74-1.23-6.08-4.68l2.68.03c.31,1.62,1.51,2.29,3.49,2.29Z" class="st1"></path>
    <path d="M1820.22,78.17v7.31h-2.9v-7.14c0-2.4-1.28-3.68-3.4-3.68-1.26,0-2.62.7-3.65,1.98v8.84h-2.9v-19.8h2.9v7.86c1.14-.98,2.56-1.51,4.24-1.51,3.4,0,5.72,2.34,5.72,6.14Z" class="st1"></path>
    <path d="M1837.24,72.37v13.11h-2.87v-1.03c-1.12.87-2.54,1.37-4.21,1.37-3.68,0-6.64-3.07-6.64-6.89s2.95-6.89,6.64-6.89c1.67,0,3.1.5,4.21,1.37v-1.03h2.87ZM1834.37,81.29v-4.74c-.98-1.39-2.34-1.9-3.79-1.9-2.4,0-4.16,1.92-4.16,4.27s1.76,4.27,4.16,4.27c1.45,0,2.82-.5,3.79-1.9ZM1832.16,70.05h-2.65l2.15-4.1h3.21l-2.7,4.1Z" class="st1"></path>
    <path d="M1855.28,78.89c0,3.85-2.98,6.92-6.66,6.92-1.67,0-3.1-.5-4.18-1.37v1.03h-2.9v-19.8h2.9v7.7c1.09-.84,2.51-1.34,4.18-1.34,3.68,0,6.66,3.07,6.66,6.86ZM1852.38,78.89c0-2.31-1.76-4.24-4.18-4.24-1.45,0-2.79.47-3.76,1.84v4.82c.98,1.37,2.31,1.87,3.76,1.87,2.43,0,4.18-1.95,4.18-4.29Z" class="st1"></path>
    <path d="M1858.74,67.54c0-1.03.81-1.78,1.84-1.78s1.84.75,1.84,1.78-.84,1.78-1.84,1.78-1.84-.75-1.84-1.78ZM1862.03,72.37v13.11h-2.87v-13.11h2.87Z" class="st1"></path>
    <path d="M1869.62,65.67v19.8h-2.9v-19.8h2.9Z" class="st1"></path>
    <path d="M1886.41,79.78h-10.29c.28,1.98,1.53,3.49,3.99,3.49,1.28,0,2.26-.39,2.79-1.23h3.18c-.84,2.37-3.15,3.76-5.99,3.76-4.13,0-6.92-2.98-6.92-6.89s2.76-6.89,6.75-6.89c4.35,0,7.05,3.32,6.5,7.75ZM1876.17,77.78h7.36c-.17-2.15-1.56-3.29-3.6-3.29-2.18,0-3.43,1.45-3.77,3.29Z" class="st1"></path>
    <path d="M1895.17,83.44c1.7,0,2.87-.56,2.87-1.59,0-.78-.64-1.34-1.76-1.53l-2.9-.5c-2.01-.33-3.88-1.34-3.88-3.71,0-2.54,2.2-4.1,5.47-4.1,2.54,0,5.47.87,5.74,4.29h-2.68c-.14-1.42-1.39-1.98-3.07-1.98s-2.59.61-2.59,1.53c0,.7.5,1.37,2.04,1.62l2.45.39c1.98.36,3.93,1.23,3.93,3.76,0,2.76-2.43,4.18-5.72,4.18-3.1,0-5.74-1.23-6.08-4.68l2.68.03c.31,1.62,1.51,2.29,3.49,2.29Z" class="st1"></path>
  </g>
  <line y2="105.77" x2="393.09" y1="6.98" x1="393.09" class="st2"></line>
  <g id="FvFFAy">
    <g>
      <path d="M854.07,44.34c2.57.08,5.08-.46,7.33,1.07,5.26,3.57,2.08,11.35,2.84,16.66l-.64,16.15c.53,7.59.04,18.26-9.83,18.98-12.38.9-25.86-.69-38.36-.01-7.2-1.49-9.16-6.18-9.44-12.94-.39-9.32-.41-18.67-.6-28-.09-4.14-1.24-8.21,2.96-10.91,2.24-1.45,4.66-.91,7.19-.99.01-6.82,3.84-13.35,9.74-16.69,12.99-7.36,28.52,2.12,28.82,16.69ZM854.07,46.21v3.42c0,.62-1.13.98-1.66.62-.16-.13-.25-.32-.32-.51-.47-1.43.05-5.34-.1-7.16-.64-7.8-7.71-14.73-15.47-15.42-9.13-.81-18.1,5.88-18.94,15.21-.17,1.88.39,5.89-.1,7.37-.06.19-.16.38-.32.51-.54.36-1.66,0-1.66-.62v-3.42h-3.83c-1.53,0-3.55,1.49-4.15,2.9-.57,1.34-.29,1.79-.3,3-.12,9.67.49,19.57.83,29.23.14,3.97-.69,7.45,2.07,10.78,1.64,1.98,3.78,2.96,6.32,3.22,11.87-.58,24.49.78,36.28.01,9.29-.61,8.77-8.43,9.02-15.44.32-9.12.71-18.7.6-27.79-.01-1.2.26-1.66-.3-3-.6-1.41-2.62-2.9-4.15-2.9h-3.83Z" class="st0"></path>
      <path d="M851.11,54.14c.18.41.24.85.27,1.29.32,4.07.11,8.74.19,12.87.1,5.09,1.11,9.32-1.77,13.97-3.03,4.87-10.14,6.97-14.92,9.76-.55.04-8.27-4.1-9.35-4.73-8.87-5.17-7.71-10.03-7.52-19.2.08-4.06-.12-8.66.19-12.66.03-.44.09-.88.27-1.29,10.22-3.98,22.42-3.96,32.64,0ZM830.81,53.32c-1.37.1-9.92,1.44-10.43,2.21-.39,5.56-.45,11.13-.5,16.7,0,.44-.21.85-.21,1.24-.1,6.79,2.14,9.39,7.74,12.57,2.42,1.38,4.99,2.58,7.46,3.86,6.37-3.79,14.51-5.5,15.07-14.35l-.63-19.7-.21-.42c-5.86-1.94-12.12-2.54-18.29-2.11Z" class="st0"></path>
      <rect height="1.87" width="29.89" y="44.34" x="819.85" class="st0"></rect>
      <path d="M842.83,65.12l.15.8-9.13,9.1c-.25.04-.49-.02-.72-.1-.38-.12-5.24-4.89-5.69-5.5-.68-.9-.58-2.22.58-2.05.95.14,4.56,4.59,5.64,5.36l7.66-7.68c.45-.35,1.07-.21,1.52.06Z" class="st0"></path>
    </g>
  </g>
  <line y2="104.83" x2="750.39" y1="6.04" x1="750.39" class="st2"></line>
  <line y2="104.83" x2="1135.01" y1="6.04" x1="1135.01" class="st2"></line>
  <line y2="104.83" x2="1516.27" y1="6.04" x1="1516.27" class="st2"></line>
</svg>