<svg xmlns="http://www.w3.org/2000/svg" fill="none" viewBox="0 0 27 27" height="27" width="27">
<path fill="#706F6F" d="M11.3677 22.7388C5.09872 22.7388 0 17.6368 0 11.3677C0 5.09871 5.09872 0 11.3677 0C17.6368 0 22.7355 5.09871 22.7355 11.3677C22.7355 14.4053 21.552 17.2587 19.4054 19.4054C17.2587 21.552 14.402 22.7355 11.3677 22.7355V22.7388ZM11.3677 1.3018C5.81865 1.3018 1.3018 5.81865 1.3018 11.3677C1.3018 16.9168 5.81865 21.4337 11.3677 21.4337C14.0568 21.4337 16.5848 20.3883 18.4849 18.4849C20.385 16.5815 21.4337 14.0568 21.4337 11.3677C21.4337 5.81865 16.9168 1.3018 11.3677 1.3018Z"></path>
<path fill="#706F6F" d="M19.3214 18.5707L18.4009 19.4912L25.679 26.7693L26.5995 25.8488L19.3214 18.5707Z"></path>
</svg>
