<svg width="102" height="35" viewBox="0 0 102 35" xmlns="http://www.w3.org/2000/svg" xmlns:xlink="http://www.w3.org/1999/xlink">
    <defs>
        <path id="j8js634bea" d="M0 33.21h100V0H0z"/>
    </defs>
    <g transform="translate(1 1)" fill="none" fill-rule="evenodd">
        <path d="M99.63 28.452a4.387 4.387 0 0 1-4.388 4.387H4.758a4.388 4.388 0 0 1-4.387-4.387V4.759A4.388 4.388 0 0 1 4.758.37h90.484a4.387 4.387 0 0 1 4.387 4.388v23.693z" stroke="#1D1D1B"/>
        <path d="M26.255 21.833c-.525 1.164-.777 1.684-1.454 2.713-.944 1.438-2.274 3.228-3.922 3.243-1.466.013-1.842-.954-3.83-.943-1.988.01-2.403.96-3.869.946-1.648-.015-2.909-1.632-3.853-3.068-2.64-4.019-2.915-8.734-1.288-11.242 1.158-1.782 2.982-2.824 4.699-2.824 1.747 0 2.845.958 4.29.958 1.402 0 2.256-.96 4.276-.96 1.527 0 3.145.832 4.297 2.27-3.776 2.07-3.163 7.465.654 8.907" fill="#1D1D1B"/>
        <path d="M19.772 9.05c.733-.942 1.29-2.272 1.089-3.631-1.2.082-2.602.845-3.421 1.84-.743.902-1.357 2.241-1.118 3.542 1.31.041 2.663-.74 3.45-1.75M35.194 15.252c.127.497.265 1.013.442 1.57l1.02 2.951h-2.9l1.004-2.97c.153-.482.298-1.002.434-1.551zm-.897-1.83-3.782 11.13h1.732l1.129-3.417h3.66l1.162 3.417h1.78l-3.798-11.13h-1.883zM44.451 17.701c1.501 0 2.173 1.39 2.173 2.769 0 1.778-.857 2.882-2.236 2.882a2.041 2.041 0 0 1-1.984-1.563 2.134 2.134 0 0 1-.06-.545v-1.355c0-.122.027-.271.053-.415.008-.046.018-.092.024-.137.252-.963 1.085-1.636 2.03-1.636m.42-1.394c-1.147 0-2.066.443-2.677 1.285l-.068-1.108h-1.54l.01.142c.044.69.064 1.449.064 2.539v8.579h1.683V23.74c.523.625 1.357.99 2.303.99.983 0 1.891-.386 2.552-1.085.737-.78 1.127-1.9 1.127-3.24 0-1.183-.339-2.206-.98-2.957a3.204 3.204 0 0 0-2.475-1.14M53.124 17.701c1.5 0 2.172 1.39 2.172 2.769 0 1.778-.858 2.882-2.237 2.882a2.042 2.042 0 0 1-1.984-1.563 2.17 2.17 0 0 1-.06-.545v-1.355c0-.123.028-.273.054-.416l.025-.136c.25-.963 1.084-1.636 2.03-1.636m.418-1.394c-1.146 0-2.064.443-2.677 1.285l-.067-1.108h-1.54l.009.142c.046.69.065 1.449.065 2.539v8.579h1.684V23.74c.522.625 1.356.99 2.301.99.985 0 1.891-.386 2.554-1.085.736-.78 1.125-1.9 1.125-3.24 0-1.183-.338-2.206-.979-2.957a3.202 3.202 0 0 0-2.475-1.14M64.407 18.138c-1.572-.609-2.076-1.087-2.076-1.972 0-.745.592-1.496 1.915-1.496 1.09 0 1.789.38 1.976.497l.144.088.475-1.405-.094-.055c-.283-.166-1.087-.55-2.453-.55-2.147 0-3.647 1.267-3.647 3.082 0 1.463.939 2.486 2.955 3.22 1.43.534 1.962 1.08 1.962 2.02 0 1.061-.82 1.72-2.141 1.72-.86 0-1.745-.251-2.428-.688l-.145-.094-.452 1.438.083.055c.636.424 1.832.732 2.845.732 2.895 0 3.922-1.765 3.922-3.276 0-1.559-.823-2.52-2.841-3.316M70.28 14.567l-1.653.519v1.398h-1.21v1.346h1.21v4.123c0 .997.19 1.695.584 2.137.376.412.955.64 1.629.64a3.95 3.95 0 0 0 1.302-.202l.094-.033-.081-1.348-.161.05c-.214.065-.432.09-.784.09-.653 0-.93-.413-.93-1.383V17.83h2.03v-1.346h-2.03v-1.917zM76.435 17.637c1.515 0 2.205 1.476 2.205 2.85 0 1.688-.941 2.913-2.237 2.913h-.016c-1.277 0-2.205-1.205-2.205-2.864 0-1.443.697-2.9 2.253-2.9m.048-1.329c-2.356 0-4.001 1.759-4.001 4.276 0 2.441 1.593 4.147 3.873 4.147h.016c1.927 0 4.001-1.344 4.001-4.292 0-1.2-.37-2.23-1.073-2.979-.706-.753-1.68-1.152-2.816-1.152M85.53 16.385l-.1-.026a1.65 1.65 0 0 0-.42-.051c-.88 0-1.671.518-2.111 1.355l-.05-1.179h-1.51l.009.142c.045.667.064 1.415.064 2.425l-.016 5.502h1.684V20.26c0-.234.016-.455.047-.653.19-1.03.885-1.697 1.77-1.697.174 0 .31.014.453.028l.18.018v-1.572zM89.204 17.573c.513 0 .93.158 1.236.471.485.493.57 1.219.58 1.567h-3.84c.156-.972.764-2.038 2.024-2.038m.112-1.282c-2.241 0-3.807 1.792-3.807 4.356 0 2.47 1.558 4.067 3.969 4.067 1.268 0 2.15-.279 2.666-.512l.101-.046-.323-1.255-.14.057c-.46.187-1.07.378-2.11.378-.732 0-2.42-.242-2.523-2.443l5.436.017.022-.108c.034-.17.05-.401.05-.702 0-1.757-.874-3.809-3.34-3.809M31.28 10.484c.19.032.469.032.764.032 1.615.007 2.493-.813 2.493-2.236.008-1.258-.774-2.032-2.372-2.032-.39 0-.685.032-.886.07v4.166zm-.765-4.666c.47-.062 1.017-.11 1.616-.11 1.085 0 1.858.22 2.37.65.53.43.835 1.047.835 1.9 0 .859-.304 1.562-.843 2.046-.556.493-1.46.759-2.597.759a11.8 11.8 0 0 1-1.38-.063V5.818zM38.07 10.586c.73 0 1.277-.618 1.277-1.477 0-.641-.356-1.446-1.26-1.446-.894 0-1.285.75-1.285 1.47 0 .828.521 1.453 1.259 1.453h.009zm-.026.516c-1.13 0-2.014-.75-2.014-1.946 0-1.267.929-2.009 2.084-2.009 1.207 0 2.023.789 2.023 1.938 0 1.407-1.085 2.017-2.084 2.017h-.009zM41.346 7.233l.564 1.915c.113.422.227.82.304 1.211h.026c.096-.383.235-.79.374-1.203l.686-1.923h.643l.651 1.891c.156.446.278.852.373 1.235h.026c.07-.383.183-.781.322-1.227l.6-1.9h.755l-1.355 3.784h-.695l-.642-1.806c-.148-.43-.27-.804-.374-1.25h-.017c-.105.453-.234.851-.383 1.258l-.677 1.798h-.694l-1.269-3.783h.782zM47.435 8.257c0-.399-.01-.711-.035-1.024h.678l.043.618h.017c.209-.353.695-.704 1.39-.704.581 0 1.485.312 1.485 1.61v2.259h-.765v-2.18c0-.61-.252-1.126-.972-1.126-.496 0-.886.32-1.025.703a.932.932 0 0 0-.052.32v2.283h-.764v-2.76z" fill="#1D1D1B"/>
        <mask id="g8z22d1vtb" fill="#fff">
            <use xlink:href="#j8js634bea"/>
        </mask>
        <path fill="#1D1D1B" mask="url(#g8z22d1vtb)" d="M52.255 11.016h.764v-5.55h-.764zM56.024 10.586c.73 0 1.277-.618 1.277-1.477 0-.641-.356-1.446-1.26-1.446-.894 0-1.285.75-1.285 1.47 0 .828.521 1.453 1.26 1.453h.008zm-.026.516c-1.129 0-2.015-.75-2.015-1.946 0-1.267.93-2.009 2.084-2.009 1.208 0 2.024.789 2.024 1.938 0 1.407-1.086 2.017-2.084 2.017h-.01zM61.27 9.085c-.834-.015-1.78.117-1.78.852 0 .454.33.657.712.657.556 0 .912-.313 1.034-.633a.646.646 0 0 0 .035-.219v-.657zm.747 1.024c0 .329.017.649.06.907h-.686l-.07-.477h-.025c-.226.297-.686.563-1.285.563-.851 0-1.286-.54-1.286-1.087 0-.914.904-1.415 2.528-1.407V8.53c0-.312-.095-.882-.955-.875-.4 0-.808.102-1.103.281l-.175-.46c.348-.196.86-.329 1.39-.329 1.294 0 1.607.789 1.607 1.548v1.414zM66.108 8.773c0-.094-.01-.203-.035-.298-.113-.429-.53-.788-1.103-.788-.79 0-1.26.625-1.26 1.454 0 .773.426 1.406 1.243 1.406.512 0 .981-.313 1.12-.82.026-.094.035-.188.035-.298v-.656zm.763-3.306v4.572c0 .336.01.719.036.977h-.686l-.035-.657h-.017c-.235.422-.739.743-1.425.743-1.016 0-1.806-.774-1.806-1.923-.01-1.266.868-2.032 1.884-2.032.652 0 1.086.273 1.269.57h.017v-2.25h.763zM71.718 10.586c.73 0 1.277-.618 1.277-1.477 0-.641-.356-1.446-1.26-1.446-.894 0-1.284.75-1.284 1.47 0 .828.52 1.453 1.259 1.453h.008zm-.026.516c-1.129 0-2.015-.75-2.015-1.946 0-1.267.93-2.009 2.084-2.009 1.208 0 2.025.789 2.025 1.938 0 1.407-1.087 2.017-2.085 2.017h-.01zM74.75 8.257c0-.399-.009-.711-.035-1.024h.678l.044.618h.017c.208-.353.694-.704 1.39-.704.58 0 1.484.312 1.484 1.61v2.259h-.764v-2.18c0-.61-.252-1.126-.973-1.126-.495 0-.886.32-1.025.703a.932.932 0 0 0-.052.32v2.283h-.764v-2.76zM82.332 6.327v.906h1.094v.523h-1.094v2.04c0 .47.148.735.573.735.208 0 .33-.015.443-.046l.035.523a2.297 2.297 0 0 1-.677.093c-.356 0-.643-.109-.826-.288-.209-.211-.295-.548-.295-.994V7.756h-.651v-.523h.651v-.696l.747-.21zM84.286 5.466h.764v2.361h.018c.121-.196.312-.375.547-.485.226-.124.494-.195.782-.195.564 0 1.467.312 1.467 1.618v2.251h-.763V8.843c0-.618-.253-1.126-.974-1.126-.494 0-.876.313-1.024.688a.74.74 0 0 0-.053.329v2.282h-.764v-5.55zM91.773 8.75c.008-.43-.2-1.119-1.051-1.119-.782 0-1.112.642-1.172 1.118h2.223zm-2.232.492c.017.93.67 1.313 1.433 1.313.547 0 .886-.086 1.164-.188l.14.484c-.27.11-.74.243-1.408.243-1.286 0-2.067-.774-2.067-1.907 0-1.149.755-2.048 1.98-2.048 1.372 0 1.728 1.086 1.728 1.782 0 .141-.008.25-.026.329l-2.944-.008z"/>
    </g>
</svg>
