<svg width="102" height="35" viewBox="0 0 102 35" xmlns="http://www.w3.org/2000/svg" xmlns:xlink="http://www.w3.org/1999/xlink">
    <defs>
        <path id="o0c5objtva" d="M0 33.211h100V0H0z"/>
    </defs>
    <g transform="translate(1 1)" fill="none" fill-rule="evenodd">
        <path d="M99.629 28.452a4.388 4.388 0 0 1-4.387 4.388H4.76a4.388 4.388 0 0 1-4.387-4.388V4.76A4.389 4.389 0 0 1 4.759.37h90.483A4.388 4.388 0 0 1 99.63 4.76v23.692z" stroke="#1D1D1B"/>
        <path d="M77.478 16.11c-.653 0-1.126.18-1.417.542-.292.362-.442.937-.45 1.727v.216c0 .898.15 1.54.45 1.928.3.387.78.58 1.44.58.553 0 .985-.223 1.299-.67.313-.447.47-1.064.47-1.85 0-.797-.157-1.409-.47-1.835-.314-.426-.754-.639-1.322-.639m.14 5.805a2.76 2.76 0 0 1-1.14-.23 2.15 2.15 0 0 1-.867-.708h-.07c.047.373.07.726.07 1.061v2.63h-.968v-9.264h.787l.135.876h.046c.25-.351.54-.603.87-.759.33-.155.71-.233 1.137-.233.848 0 1.503.29 1.964.869.46.58.691 1.393.691 2.439 0 1.05-.234 1.866-.703 2.447-.468.582-1.119.872-1.952.872" fill="#1D1D1B"/>
        <mask id="40yaxkm71b" fill="#fff">
            <use xlink:href="#o0c5objtva"/>
        </mask>
        <path fill="#1D1D1B" mask="url(#40yaxkm71b)" d="M81.547 21.798h.969V12.72h-.97zM85.896 21.115c.603 0 1.075-.165 1.42-.496.344-.33.516-.793.516-1.388v-.578l-.968.04c-.77.028-1.325.148-1.665.36-.34.212-.512.542-.512.99 0 .348.107.615.32.798.21.183.507.274.889.274zm2.187.682-.192-.91h-.047c-.32.401-.637.672-.954.814-.317.142-.713.214-1.188.214-.633 0-1.13-.165-1.49-.49-.36-.328-.54-.792-.54-1.395 0-1.291 1.033-1.967 3.099-2.03l1.085-.035v-.397c0-.502-.108-.873-.324-1.112-.216-.24-.562-.358-1.035-.358-.534 0-1.137.163-1.81.49l-.297-.741c.315-.171.66-.306 1.036-.403a4.477 4.477 0 0 1 1.129-.146c.762 0 1.327.17 1.695.508.367.339.55.881.55 1.628v4.363h-.717zM89.363 15.403H90.4l1.4 3.647c.307.832.498 1.433.573 1.803h.046c.05-.2.156-.538.318-1.019.162-.48.69-1.956 1.584-4.43h1.039l-2.748 7.28c-.272.72-.59 1.231-.954 1.533-.364.3-.81.45-1.34.45-.295 0-.587-.032-.875-.098v-.776c.214.047.454.07.718.07.665 0 1.14-.373 1.424-1.12l.356-.91-2.58-6.43zM59.116 19.395c.307-.309.333-.736.333-.977 0-.963-.575-2.46-1.684-2.46-.348 0-.722.173-.936.441-.228.281-.295.642-.295.99 0 .895.522 2.38 1.672 2.38.335 0 .695-.16.91-.374zm-.388 2.54c-.107-.013-.175-.013-.308-.013-.12 0-.843.027-1.404.215-.294.106-1.15.428-1.15 1.377 0 .95.923 1.633 2.354 1.633 1.283 0 1.966-.617 1.966-1.446 0-.683-.441-1.042-1.458-1.765zm.95-5.938c.307.255.949.79.949 1.806 0 .989-.562 1.459-1.124 1.9-.174.172-.374.36-.374.655 0 .294.2.454.347.575l.483.374c.588.494 1.123.95 1.123 1.873 0 1.257-1.218 2.528-3.518 2.528-1.939 0-2.875-.923-2.875-1.914 0-.481.239-1.163 1.03-1.631.828-.508 1.952-.575 2.554-.616-.188-.24-.402-.495-.402-.908 0-.227.068-.362.135-.523a4.665 4.665 0 0 1-.429.028c-1.418 0-2.22-1.058-2.22-2.1 0-.616.281-1.298.856-1.792.762-.63 1.672-.736 2.395-.736h2.754l-.856.481h-.828zM52.926 20.64c.322-.427.401-.961.401-1.482 0-1.175-.56-3.419-2.216-3.419-.44 0-.881.174-1.202.456-.52.466-.614 1.054-.614 1.629 0 1.32.654 3.496 2.27 3.496.52 0 1.055-.253 1.361-.68m-1.668 1.082c-2.124 0-3.258-1.656-3.258-3.152 0-1.75 1.428-3.244 3.459-3.244 1.961 0 3.19 1.535 3.19 3.15 0 1.576-1.214 3.246-3.391 3.246M45.69 20.64c.32-.427.4-.961.4-1.482 0-1.175-.56-3.419-2.216-3.419-.441 0-.882.174-1.203.456-.52.466-.614 1.054-.614 1.629 0 1.32.654 3.496 2.27 3.496a1.71 1.71 0 0 0 1.363-.68m-1.67 1.082c-2.123 0-3.258-1.656-3.258-3.152 0-1.75 1.43-3.244 3.459-3.244 1.963 0 3.19 1.535 3.19 3.15 0 1.576-1.214 3.246-3.391 3.246M39.742 21.513l-1.92.443c-.779.12-1.477.227-2.215.227-3.705 0-5.115-2.725-5.115-4.86 0-2.604 2-5.02 5.424-5.02.726 0 1.423.107 2.054.283 1.006.281 1.477.63 1.772.832l-1.115 1.06-.47.107.336-.537c-.456-.443-1.289-1.262-2.872-1.262-2.122 0-3.72 1.612-3.72 3.962 0 2.522 1.826 4.899 4.753 4.899.86 0 1.301-.174 1.705-.336V19.15l-2.027.107 1.073-.578h2.847l-.349.336c-.095.08-.108.108-.134.214-.015.121-.027.51-.027.645v1.639z"/>
        <path d="M63.92 21.126c-.443-.04-.535-.12-.535-.645v-7.597l.007-.087c.054-.47.188-.55.605-.792h-1.92l-1.008.483h1.027v.006l-.001-.005v8.288c0 .268-.053.309-.362.71h2.376l.497-.293c-.228-.028-.457-.041-.685-.068M68.13 17.276c.253-.093.387-.173.387-.36 0-.532-.6-1.146-1.32-1.146-.534 0-1.533.413-1.533 1.853 0 .226.027.467.04.707l2.427-1.054zm1.254 3.973c-.147.08-.293.175-.44.24-.44.2-.893.254-1.294.254-.426 0-1.093-.027-1.773-.52-.947-.667-1.359-1.814-1.359-2.814 0-2.065 1.679-3.079 3.053-3.079.48 0 .974.12 1.373.374.666.439.84 1.013.933 1.319l-3.133 1.267-1.027.08c.333 1.693 1.48 2.679 2.747 2.679.68 0 1.173-.24 1.626-.466l-.706.666zM70.67 15.421v.88h-.107v-.88h-.29v-.091h.688v.091zM71.87 16.301v-.888h-.006l-.27.888h-.084l-.274-.888h-.002v.888h-.097v-.971h.165l.248.785h.004l.243-.785h.169v.971zM32.195 8.512c-.237-.717-.356-1.105-.356-1.163h-.033c0 .053-.123.441-.37 1.163h.76zm.963 1.177h-.667c0-.092-.063-.351-.19-.78h-.962c-.131.422-.197.682-.197.78h-.627c0-.054.162-.498.487-1.333.325-.836.487-1.296.487-1.381h.787c0 .08.147.533.442 1.36.294.828.44 1.28.44 1.354zM35.846 9.69h-.514c0-.058-.191-.358-.573-.904-.4-.573-.629-.966-.685-1.177h-.032c.034.304.052.58.052.825 0 .344.01.762.029 1.255h-.513a29.597 29.597 0 0 0 0-2.714h.619c0 .074.171.368.515.882.365.546.576.917.63 1.11h.03a7.842 7.842 0 0 1-.05-.833c0-.377-.01-.763-.028-1.16h.52a31.44 31.44 0 0 0 0 2.714M38.299 8.328c0-.267-.077-.492-.234-.675-.155-.182-.393-.273-.712-.273-.06 0-.142.006-.246.018.013.278.02.569.02.871 0 .333.007.662.022.989.09.017.18.027.27.027.299 0 .52-.093.664-.279.144-.185.216-.411.216-.678m.569-.09c0 .395-.126.74-.38 1.034-.252.295-.607.443-1.062.443-.206 0-.49-.01-.851-.026a33.776 33.776 0 0 0 0-2.714h.365c.06 0 .148-.002.267-.006l.23-.006c.503 0 .866.125 1.092.375.226.25.339.55.339.9M40.872 7.771c0-.276-.178-.414-.533-.414-.13 0-.246.01-.346.029.014.215.023.496.023.842.076.003.14.004.194.004.442 0 .662-.153.662-.46m.782 1.917h-.617c-.162-.492-.285-.796-.371-.91-.086-.116-.225-.174-.417-.174-.08 0-.158 0-.231.002 0 .358.006.718.018 1.082h-.58a33.776 33.776 0 0 0 0-2.714h.362l.262-.006c.132-.004.254-.006.367-.006.638 0 .957.218.957.654 0 .346-.182.588-.546.724v.03c.14.04.263.15.369.33.105.18.248.509.427.988M44.067 8.343c0-.291-.075-.527-.223-.707a.686.686 0 0 0-.55-.27c-.204 0-.375.09-.517.272-.142.182-.213.412-.213.69 0 .29.074.524.224.706.15.18.333.272.55.272.203 0 .374-.092.516-.275.142-.182.213-.411.213-.688m.575-.06c0 .426-.13.78-.392 1.06-.26.281-.585.422-.97.422-.366 0-.673-.13-.92-.387-.248-.258-.372-.586-.372-.983 0-.427.131-.78.392-1.06.261-.282.585-.422.97-.422.367 0 .674.128.921.385.247.258.37.585.37.984M45.821 9.69h-.59a34.521 34.521 0 0 0 0-2.715h.59a33.838 33.838 0 0 0 0 2.714M48.273 8.328c0-.267-.078-.492-.233-.675-.156-.182-.394-.273-.713-.273-.06 0-.142.006-.246.018.014.278.02.569.02.871 0 .333.008.662.021.989.091.017.18.027.272.027.298 0 .52-.093.663-.279.144-.185.216-.411.216-.678m.57-.09c0 .395-.127.74-.38 1.034-.253.295-.607.443-1.063.443-.206 0-.49-.01-.85-.026a33.776 33.776 0 0 0 0-2.714h.364c.06 0 .149-.002.267-.006l.231-.006c.502 0 .866.125 1.092.375.226.25.339.55.339.9M51.888 8.512c-.238-.717-.357-1.105-.357-1.163h-.033c0 .053-.123.441-.369 1.163h.759zm.963 1.177h-.667c0-.092-.064-.351-.19-.78h-.963c-.13.422-.196.682-.196.78h-.627c0-.054.162-.498.486-1.333.324-.836.487-1.296.487-1.381h.788c0 .08.147.533.44 1.36.295.828.442 1.28.442 1.354zM54.745 7.8c0-.296-.198-.446-.593-.446-.098 0-.202.011-.312.031.015.263.023.56.023.893.035.003.075.004.12.004.508 0 .762-.16.762-.481m.538-.115c0 .332-.124.578-.37.736-.247.158-.55.238-.908.238-.066 0-.112-.002-.14-.005 0 .262.007.606.023 1.035h-.586c.018-.402.027-.876.027-1.42 0-.5-.009-.932-.027-1.295h.363c.051 0 .15-.002.296-.006s.272-.006.38-.006c.263 0 .486.06.668.179.183.12.274.301.274.544M57.245 7.8c0-.296-.197-.446-.592-.446-.1 0-.203.011-.313.031.016.263.023.56.023.893.034.003.075.004.121.004.507 0 .76-.16.76-.481m.54-.115c0 .332-.124.578-.37.736-.247.158-.55.238-.909.238-.066 0-.112-.002-.14-.005 0 .262.008.606.024 1.035h-.587c.018-.402.028-.876.028-1.42 0-.5-.01-.932-.028-1.295h.363c.051 0 .15-.002.296-.006s.272-.006.38-.006c.264 0 .486.06.668.179.183.12.274.301.274.544M61.295 8.343c0-.291-.075-.527-.223-.707a.685.685 0 0 0-.55-.27c-.203 0-.376.09-.517.272-.142.182-.212.412-.212.69 0 .29.073.524.223.706a.686.686 0 0 0 .55.272c.202 0 .374-.092.517-.275.14-.182.212-.411.212-.688m.575-.06c0 .426-.13.78-.391 1.06-.261.281-.585.422-.97.422-.367 0-.674-.13-.921-.387-.248-.258-.371-.586-.371-.983 0-.427.13-.78.391-1.06.262-.282.585-.422.97-.422.366 0 .674.128.92.385.248.258.372.585.372.984M64.696 9.69h-.515c0-.058-.19-.358-.573-.904-.4-.573-.629-.966-.684-1.177h-.033c.035.304.052.58.052.825 0 .344.01.762.03 1.255h-.514c.021-.43.031-.903.031-1.42 0-.506-.01-.938-.031-1.294h.619c0 .074.172.368.516.882.365.546.575.917.628 1.11h.032a7.842 7.842 0 0 1-.05-.833c0-.377-.01-.763-.03-1.16h.522a31.365 31.365 0 0 0 0 2.714M26.19 17.035 22.4 14.847 19.28 17.86l2.85 2.756 4.06-2.344a.707.707 0 0 0 .358-.619.708.708 0 0 0-.357-.619M21.755 14.475l-4.173-2.409-9.145-4.687 10.33 9.986zM8.588 28.196l9.01-4.963 3.889-2.244-2.72-2.63zM7.826 7.784l-.01 20.165 10.436-10.088z" fill="#1D1D1B" mask="url(#40yaxkm71b)"/>
    </g>
</svg>
